<svg width="75" height="76" viewBox="0 0 75 76" fill="none" xmlns="http://www.w3.org/2000/svg">
<path d="M62.5 56.9257C66.4375 51.707 68.75 45.207 68.75 38.1757C68.75 31.1445 66.4375 24.6445 62.5 19.4257M12.5 19.4257C8.5625 24.6445 6.25 31.1445 6.25 38.1757C6.25 45.207 8.5625 51.707 12.5 56.9257M52.5 49.4257C54.8437 46.3007 56.25 42.3945 56.25 38.1757C56.25 33.957 54.8437 30.0507 52.5 26.9257M22.5 26.9257C20.1562 30.0507 18.75 33.957 18.75 38.1757C18.75 42.3945 20.1562 46.3007 22.5 49.4257M37.5 44.4257C39.1576 44.4257 40.7473 43.7672 41.9194 42.5951C43.0915 41.423 43.75 39.8333 43.75 38.1757C43.75 36.5181 43.0915 34.9284 41.9194 33.7563C40.7473 32.5842 39.1576 31.9257 37.5 31.9257C35.8424 31.9257 34.2527 32.5842 33.0806 33.7563C31.9085 34.9284 31.25 36.5181 31.25 38.1757C31.25 39.8333 31.9085 41.423 33.0806 42.5951C34.2527 43.7672 35.8424 44.4257 37.5 44.4257Z" stroke="white" stroke-width="1.5" stroke-linecap="round" stroke-linejoin="round"/>
</svg>
